<?xml version="1.0" encoding="UTF-8"?>
<svg id="Layer_1" data-name="Layer 1" xmlns="http://www.w3.org/2000/svg" viewBox="0 0 800 206.75">
  <defs>
    <style>
      .cls-1, .cls-2 {
        fill: #444;
      }

      .cls-3 {
        letter-spacing: 0em;
      }

      .cls-2 {
        font-family: BrittanySignatureRegular, 'Brittany Signature';
        font-size: 100.23px;
      }
    </style>
  </defs>
  <text class="cls-2" transform="translate(175.34 117.24)"><tspan x="0" y="0">T</tspan><tspan class="cls-3" x="54.33" y="0">abe</tspan><tspan x="160.27" y="0">a Kleine</tspan></text>
  <path class="cls-1" d="m11.82,124.43c3.46,2.19,6.82,4.52,10.64,6.11,4.67,1.95,9.55,3.15,14.52,3.56,9.94.82,19.87.36,29.73-1.29,4.02-.68,8.09-1,12.09-1.76,2.28-.43,4.52-1.11,6.83-1.5,3.01-.52,5.97-1.31,8.94-2.01,6.23-1.47,12.44-3.07,18.71-4.34,1.37-.28,2.55-1,3.92-1.13l5.09-1.33c3.44-.96,6.88-1.97,10.33-2.88,4.5-1.18,9.06-2.17,13.53-3.44,6.17-1.75,12.32-3.57,18.41-5.57,7.7-2.53,15.17-5.63,22.46-9.18,1.54-.75,3.06-1.53,4.59-2.3.28.09.51.23.69.42,1.21,1.36-.27,4.27-2.43,5.27-6.3,2.92-12.89,5.05-19.43,7.32l-3.12.89c-1.5.59-2.97,1.28-4.5,1.76-2.49.79-5.02,1.44-7.53,2.16-2.11.6-4.22,1.23-6.34,1.83-3.34.95-6.68,1.89-10.02,2.82-2.91.81-5.81,1.62-8.73,2.36-2.46.63-4.94,1.18-7.41,1.76-4.88,1.13-9.75,2.29-14.64,3.37-3.63.8-7.27,1.54-10.92,2.23-2.64.5-5.2,1.38-7.92,1.61-1.89.16-3.73.89-5.62,1.25-1.2.23-2.53.03-3.66.42-3.53,1.22-7.23,1.49-10.86,2.04-5.03.76-10.09,1.4-15.16,1.73-4.71.31-9.46.16-14.19.21-2.98-.08-5.8-.27-8.4-.63-6.67-.82-13.23-2.22-19.39-5.01-4.38-1.98-8.82-3.98-11.43-8.37-.82-1.37-1.02-3.02.42-4.1,1.45-1.09,3.02-.47,4.33.54,2.18,1.68,4.3,3.45,6.44,5.18"/>
  <path class="cls-1" d="m788.18,71.85c-3.46-2.19-6.82-4.52-10.64-6.11-4.67-1.95-9.55-3.15-14.52-3.56-9.94-.82-19.87-.36-29.73,1.29-4.02.68-8.09,1-12.09,1.76-2.28.43-4.52,1.11-6.83,1.5-3.01.52-5.97,1.31-8.94,2.01-6.23,1.47-12.44,3.07-18.71,4.34-1.37.28-2.55,1-3.92,1.13l-5.09,1.33c-3.44.96-6.88,1.97-10.33,2.88-4.5,1.18-9.06,2.17-13.53,3.44-6.17,1.75-12.32,3.57-18.41,5.57-7.7,2.53-15.17,5.63-22.46,9.18-1.54.75-3.06,1.53-4.59,2.3-.28-.09-.51-.23-.69-.42-1.21-1.36.27-4.27,2.43-5.27,6.3-2.92,12.89-5.05,19.43-7.32l3.12-.89c1.5-.59,2.97-1.28,4.5-1.76,2.49-.79,5.02-1.44,7.53-2.16,2.11-.6,4.22-1.23,6.34-1.83,3.34-.95,6.68-1.89,10.02-2.82,2.91-.81,5.81-1.62,8.73-2.36,2.46-.63,4.94-1.18,7.41-1.76,4.88-1.13,9.75-2.29,14.64-3.37,3.63-.8,7.27-1.54,10.92-2.23,2.64-.5,5.2-1.38,7.92-1.61,1.89-.16,3.73-.89,5.62-1.25,1.2-.23,2.53-.03,3.66-.42,3.53-1.22,7.23-1.49,10.86-2.04,5.03-.76,10.09-1.4,15.16-1.73,4.71-.31,9.46-.16,14.19-.21,2.98.08,5.8.27,8.4.63,6.67.82,13.23,2.22,19.39,5.01,4.38,1.98,8.82,3.98,11.43,8.37.82,1.37,1.02,3.02-.42,4.1-1.45,1.09-3.02.47-4.33-.54-2.18-1.68-4.3-3.45-6.44-5.18"/>
</svg>