<?xml version="1.0" encoding="UTF-8"?>
<svg id="Layer_1" data-name="Layer 1" xmlns="http://www.w3.org/2000/svg" viewBox="0 0 801.01 180.19">
  <defs>
    <style>
      .cls-1 {
        fill: #444;
      }
    </style>
  </defs>
  <path class="cls-1" d="m274.32,13.98h0c15.29-4.63,25.47-7.74,30.32-9.24.58-.25,1.01-.66,1.3-1.24.29-.58.35-1.18.19-1.81-.17-.65-.59-1.13-1.22-1.43-.61-.29-1.22-.34-1.82-.17-4.74,1.54-14.61,4.55-30.16,9.22-29.24,8.84-50.53,15.48-63.26,19.75-10.39,3.46-18.43,6.4-23.89,8.73-4.29,1.77-7.09,3.19-8.54,4.33-1.52,1.2-2.3,2.43-2.29,3.69.15,1.77,1.42,2.89,3.75,3.34.18.08.37.12.56.12,1.3,0,2.15-.71,2.4-2.02.12-.74-.04-1.39-.47-1.91,4.26-2.54,15.09-6.72,32.21-12.43,4.54-1.51,9.75-3.18,15.48-4.95-2.25,9.11-6.43,27.43-12.42,54.48-9.08,40.72-15.45,68.05-18.97,81.42-.03-.14-.07-.28-.12-.41-.17-.43-.45-.78-.84-1.03-.38-.26-.81-.38-1.17-.38-.68-.08-1.28.09-1.79.51-.5.42-.8.96-.88,1.65-.54,6.48-.7,10.69-.5,12.53.23,2.04,1.08,3.2,2.6,3.45h.4c1.13,0,2.09-.75,2.85-2.23.69-1.34,1.58-3.91,2.74-7.85,1.46-4.93,3.39-12.36,5.72-22.07,2.94-12.02,7.86-33.71,14.64-64.46,6.52-29.3,10.94-48.59,13.16-57.35,9.09-2.85,22.56-6.97,40.02-12.24Z"/>
  <path class="cls-1" d="m378.44,94.99h0c-.59-.29-1.21-.34-1.84-.13-.63.21-1.12.65-1.44,1.31-2.32,4.84-4.62,8.88-6.82,12.01-2.2,3.12-4.02,5.24-5.41,6.31-1.31,1-2.37,1.43-3.15,1.26h-.1c-.22-.01-.43-.09-.65-.26-.14-.11-.48-.45-1.13-1.52-.51-.82-.96-1.88-1.35-3.14-.39-1.27-.79-3.19-1.19-5.69-.4-2.51-.66-5.43-.8-8.68-.08-1.15-.69-1.91-1.77-2.2-1.06-.29-1.97,0-2.64.84-.34.47-.94,1.3-1.8,2.5-3.85,5.3-7.14,9.44-9.77,12.27-.23.23-.45.44-.65.63-.07-2.11.68-5.33,2.23-9.58.31-.85.66-1.71,1.1-2.65.16-.24.27-.5.34-.78,1.51-3.12,3.27-5.41,5.25-6.81,2.17-1.57,4.28-1.07,6.44,1.52.42.51.98.79,1.66.83.66.04,1.26-.15,1.76-.57.51-.42.79-.98.83-1.66.04-.66-.15-1.25-.57-1.75-3.14-3.77-6.63-5-10.37-3.66-2.5.83-4.85,2.89-6.97,6.11-.77,1.16-1.5,2.42-2.23,3.84-.04.03-.09.08-.16.16-7.15,10.06-13.72,17.24-19.53,21.33-2.97,2.15-5.31,2.54-7.11,1.22-.3-.24-.59-.55-.86-.91-.19-.25-.5-.79-.94-1.93-.35-.92-.57-2.02-.67-3.27-.1-1.26.02-3,.35-5.15.28-1.84.75-3.9,1.39-6.12.35-.51.68-1.02,1.01-1.54,4.41-3.82,7.82-7.44,10.14-10.77,2.6-3.72,3.47-6.56,2.67-8.66-.54-1.61-1.75-2.41-3.5-2.35-2.32.07-4.81,1.91-7.6,5.61-2.7,3.57-5.02,8.48-6.9,14.59l-.02.17c-.08.24-.14.47-.21.7l-.1.35c-4.84,6.77-11.4,12.77-19.53,17.85.88-1.38,1.67-2.81,2.36-4.28,1.01-2.15,1.75-4.16,2.19-5.96.44-1.8.67-3.45.67-4.89-.07-3.17-1.24-5.11-3.46-5.78-3.34-1.01-7.58,2.16-12.98,9.71-1.19,1.65-2.43,3.67-3.69,6.03,2.95-13.53,6.1-27.35,9.38-41.13,6.65-11.97,11.6-22.26,14.73-30.58,3.23-8.6,4.03-13.81,2.45-15.9-.71-1.02-1.78-1.44-3.11-1.21-2.33.44-4.96,3.92-8.03,10.66-2.97,6.51-5.63,14.49-7.9,23.69-.73,2.92-1.67,6.83-2.8,11.59-.08.23-.12.46-.12.7-1.98,8.44-4.04,17.41-6.12,26.66-.05.08-.1.16-.14.25-2.32,4.84-4.62,8.88-6.82,12.01-2.2,3.12-4.02,5.24-5.41,6.31-1.31,1-2.37,1.43-3.15,1.26h-.1c-.22-.01-.43-.09-.65-.26-.14-.11-.48-.45-1.13-1.52-.51-.82-.96-1.88-1.35-3.14-.39-1.27-.79-3.19-1.19-5.69-.4-2.51-.66-5.43-.8-8.68-.08-1.15-.69-1.91-1.77-2.2-1.06-.29-1.97,0-2.64.84-.34.47-.94,1.3-1.8,2.5-3.85,5.3-7.14,9.44-9.77,12.27-.23.23-.45.44-.65.63-.07-2.11.68-5.33,2.23-9.58,1.79-4.92,4.04-8.37,6.69-10.24,2.17-1.57,4.28-1.07,6.44,1.52.42.51.98.79,1.66.83.66.04,1.26-.15,1.76-.57.51-.42.79-.98.83-1.66.04-.66-.15-1.25-.57-1.75-3.14-3.77-6.63-5-10.37-3.66-2.5.83-4.85,2.89-6.97,6.11-2.09,3.17-3.69,6.48-4.77,9.85-1.08,3.38-1.63,6.33-1.63,8.76-.07,3.1.81,5.01,2.6,5.68,1.81.83,3.96-.05,6.39-2.62,2.34-2.58,5.02-5.89,7.98-9.83,1.19,10.68,4,16.32,8.6,17.21.44.07.82.11,1.18.11,3.69,0,7.55-2.88,11.77-8.78-3.13,14.18-4.68,21.84-4.75,23.42,0,.58.19,1.11.56,1.57.38.46.88.74,1.54.83h.3c1.55,0,2.15-.9,2.38-1.66.72-2.33,1.55-4.71,2.49-7.11.6.51,1.36.62,2.21.32,3.15-1.07,6.32-2.38,9.43-3.88,3.11-1.5,6.65-3.5,10.52-5.94,3.89-2.45,7.73-5.54,11.41-9.19.46-.45.93-.93,1.42-1.46-.19,2.53-.07,4.64.35,6.29.48,1.85,1.06,3.31,1.72,4.35.66,1.05,1.43,1.9,2.29,2.54,1.48,1.06,3.23,1.6,5.2,1.6,2.5,0,5.06-.91,7.61-2.7,3.98-2.83,8.29-6.96,12.82-12.3-.05.56-.08,1.08-.08,1.56-.07,3.1.81,5.01,2.6,5.68,1.81.83,3.96-.05,6.39-2.62,2.34-2.58,5.02-5.89,7.98-9.83,1.19,10.68,4,16.32,8.6,17.21.44.07.82.11,1.18.11,5.88,0,12.28-7.34,19.6-22.45.25-.58.27-1.19.06-1.81-.21-.63-.61-1.09-1.2-1.39Zm-63.87-6.26c1.23-2.2,2.47-3.9,3.71-5.09-.77,1.48-2.01,3.18-3.71,5.09Zm-28.76,15.58c-.33,1.63-.91,3.4-1.72,5.26-.82,1.87-1.92,3.81-3.26,5.78-1.34,1.96-3.06,3.79-5.11,5.46-1.73,1.4-3.59,2.53-5.53,3.35,2.88-6.83,5.71-12.19,8.41-15.96,1.58-2.24,3.05-4.02,4.35-5.29,1.61-1.57,2.27-2.08,2.54-2.22.23-.12.4-.19.53-.24.16.49.25,1.56-.21,3.86Zm-.3-54.84c2.26-7.6,4.62-13.62,7.06-17.99-1.22,4.55-3.58,10.57-7.06,17.99Z"/>
  <path class="cls-1" d="m488.41,157c-.64-.13-1.26.02-1.83.43-1.75,1.19-3.51,1.96-5.24,2.29l.07-.2c.25-.67.23-1.31-.07-1.9-.26-.53-.68-.92-1.24-1.17,1.1-7.77,3.55-20.73,7.3-38.54,3.81-18.13,7.86-35.8,12.04-52.52l.17-.19c6.2-9.87,10.75-18.79,13.53-26.51,2.86-7.95,3.51-12.9,2-15.13-.78-1.16-1.88-1.65-3.18-1.42-1.23.15-2.46,1.12-3.75,2.96-1.22,1.73-2.33,3.71-3.31,5.9-.97,2.17-1.97,4.73-2.97,7.61-1,2.87-1.78,5.29-2.32,7.2-.54,1.91-1.04,3.73-1.5,5.47-5.46,20.62-11.02,44.44-16.54,70.79-2.4,11.6-4.22,21.11-5.42,28.28-.64,3.75-1.07,6.65-1.27,8.65-.86-.34-1.71-.77-2.54-1.27-1.59-.97-3.25-2.39-4.96-4.22-1.71-1.85-3.26-3.62-4.59-5.29-1.31-1.64-2.94-3.95-4.83-6.88-1.94-3-3.4-5.3-4.45-7.05-1.07-1.77-2.6-4.36-4.61-7.76-6.46-10.9-11.49-18.59-14.96-22.89,3.72-.88,7.59-2.21,11.53-3.96,2.41-1.07,4.86-2.34,7.27-3.79,2.41-1.44,5.2-3.43,8.28-5.9,3.08-2.48,6.1-5.27,8.97-8.32,2.88-3.05,5.93-6.84,9.07-11.28,3.13-4.44,6.11-9.31,8.85-14.49,2.73-5.17,5.46-11.32,8.09-18.3,2.63-6.97,4.98-14.52,6.98-22.44.17-.6.09-1.2-.25-1.79-.34-.58-.83-.97-1.46-1.14-.63-.17-1.25-.08-1.83.25-.59.34-.97.85-1.14,1.51-1.73,6.71-3.68,13.15-5.8,19.15-2.12,6-4.37,11.43-6.69,16.13-2.33,4.71-4.76,9.15-7.25,13.19-2.48,4.04-5.05,7.63-7.62,10.66-2.59,3.05-5.11,5.82-7.49,8.24-2.37,2.41-4.83,4.53-7.3,6.31-2.49,1.79-4.75,3.28-6.73,4.43-1.98,1.16-3.96,2.21-5.86,3.13-4.23,1.86-8.42,3.19-12.47,3.94,2.32-9.88,5.57-23.45,9.65-40.35,3.56-14.71,5.96-24.69,7.12-29.67.17-.67.06-1.31-.32-1.9-.38-.58-.89-.94-1.52-1.07-.62-.12-1.22-.02-1.8.31-.6.34-.96.89-1.04,1.52l-7.12,29.67c-4.01,16.63-7.12,29.63-9.25,38.65-1.48-1.07-2.96-1.95-4.4-2.61-6.42-2.83-10.77-2.88-12.93-.14-1.35,1.8-1.18,3.79.51,5.92,2.35,2.97,6.45,4.69,12.19,5.1.82.05,1.69.09,2.61.1-2.2,9.46-4.11,17.85-5.67,24.96-2.6,12.01-4.49,21.39-5.62,27.9-.82,5.5-1.16,9-1.06,10.73.11,1.88.81,3.07,2.13,3.56.31.08.62.12.92.12,1.11,0,2.14-.7,3.07-2.08.86-1.27,1.94-3.38,3.31-6.47.24-.64.26-1.28.05-1.89-.22-.65-.65-1.1-1.29-1.36-.62-.25-1.25-.25-1.88,0-.34.13-.62.32-.85.55,1.5-9.62,5.42-28.02,11.67-54.83,3.5,4.29,8.55,12.03,15.05,23.02,1.6,2.67,2.82,4.71,3.66,6.11.83,1.4,2.03,3.35,3.56,5.77,1.54,2.44,2.83,4.39,3.83,5.79,1,1.41,2.22,3.08,3.66,5.02,1.44,1.95,2.79,3.53,4.01,4.72,1.21,1.18,2.53,2.38,3.93,3.58,1.43,1.23,2.9,2.21,4.37,2.93,1.46.71,2.93,1.25,4.36,1.59h.03c.15.11.32.21.57.3.65.16,1.08.16,1.57-.04,3.75.27,7.51-.84,11.12-3.32.6-.34.96-.89,1.05-1.58.08-.66-.07-1.26-.44-1.8-.37-.54-.88-.88-1.51-1.01Zm15.92-110c2.12-7.19,4.21-12.72,6.25-16.52-.94,4.43-3.03,9.96-6.25,16.52Zm-80.96,52.9c-3.31-.12-6.07-.86-8.21-2.21-.71-.47-1.12-.87-1.35-1.19.99-.17,2.9.08,6.6,1.66.98.42,1.97,1,2.96,1.73Z"/>
  <path class="cls-1" d="m535.34,87.37h.03c.94,0,1.8-.19,2.53-.55,1.55-.77,2.16-2.01,1.77-3.57-.18-.77-.55-1.32-1.1-1.63-.64-.36-1.49-.37-2.57-.03-1.18.44-2.14,1.33-2.88,2.65-.42.83-.47,1.53-.16,2.07.36.63,1.13.97,2.37,1.06Z"/>
  <path class="cls-1" d="m625.01,94.93h0c-.55-.38-1.16-.51-1.83-.38-.65.12-1.19.43-1.62.95-7.15,10.06-13.72,17.24-19.53,21.33-2.97,2.15-5.3,2.54-7.11,1.22-.3-.24-.59-.55-.87-.91-.27-.36-.59-1.01-.93-1.93-.35-.92-.57-2.02-.67-3.27-.1-1.26.02-2.99.35-5.15.16-1.03.37-2.13.64-3.27.97-1.56,2.01-3.34,3.11-5.28.09-.15.16-.31.21-.5,3.66-3.31,6.54-6.47,8.58-9.39,2.6-3.72,3.47-6.56,2.67-8.66-.54-1.61-1.75-2.43-3.5-2.35-2.32.07-4.81,1.91-7.6,5.61-2.7,3.57-5.02,8.48-6.89,14.59l-.02.17c-.39,1.22-.75,2.49-1.1,3.88-.59.9-1.28,1.96-2.12,3.19-1.31,1.93-2.54,3.41-3.68,4.42-1.03.92-1.91,1.33-2.57,1.23-.99-.12-2.54-1.55-4.29-7.67-.94-3.03-1.96-5.46-3-7.22-1.12-1.88-2.66-2.88-4.57-2.95-1.61-.07-3.28.72-4.98,2.34-1.1,1.06-2.34,2.69-3.68,4.88.64-2.28,1.41-4.98,2.3-8.09l.99-3.47c.25-.67.21-1.32-.13-1.93-.33-.58-.83-.97-1.46-1.14-.62-.16-1.23-.1-1.81.19-.58.29-1,.77-1.26,1.48-.19.77-.52,1.91-1,3.49-.44,1.53-.87,2.99-1.27,4.42-.14.11-.3.26-.48.47-3.3,5.35-7.27,10.17-11.79,14.33-5.48,5.04-7.89,5.57-8.91,5.13-.05-.02-.15-.09-.32-.25-.02-.02-.18-.22-.47-1.29-.22-.79-.35-1.81-.38-3.04-.03-1.23.13-3.07.5-5.48.36-2.41.95-5.25,1.74-8.41.17-.6.09-1.2-.25-1.79-.33-.58-.83-.97-1.46-1.14-.63-.17-1.25-.08-1.83.25-.59.34-.97.85-1.14,1.51l-.04.17c-.08.06-.18.14-.28.27-7.15,10.06-13.72,17.24-19.53,21.33-2.97,2.15-5.3,2.54-7.11,1.22-.3-.24-.59-.55-.87-.91-.27-.36-.59-1.01-.93-1.93-.35-.92-.57-2.02-.67-3.27-.1-1.26.02-2.99.35-5.15.32-2.13.88-4.49,1.65-7.01,4.76-4.05,8.43-7.89,10.9-11.43,2.6-3.72,3.47-6.56,2.67-8.66-.54-1.61-1.75-2.43-3.5-2.35-2.32.07-4.81,1.91-7.6,5.61-2.7,3.57-5.02,8.48-6.89,14.59l-.02.17c-1.19,3.73-1.95,7.11-2.25,10.05-.31,2.98-.22,5.44.26,7.29.48,1.85,1.06,3.31,1.71,4.35.66,1.05,1.43,1.9,2.29,2.54,1.48,1.06,3.23,1.6,5.2,1.6,2.5,0,5.06-.91,7.61-2.7,4.59-3.26,9.62-8.26,14.95-14.88-.82,7.43.43,11.76,3.81,13.23.67.29,1.44.44,2.31.44,2.37,0,5.29-1.32,8.67-3.91,3.19-2.45,6.1-5.23,8.68-8.27-1.5,5.94-2.45,10.48-2.82,13.53-.16,1.37.49,2.3,1.83,2.64.19.08.38.13.57.13,1.07,0,1.86-.52,2.27-1.52,1.8-4.46,3.5-8.36,5.05-11.6,1.56-3.24,2.83-5.73,3.79-7.38.95-1.64,1.83-2.95,2.61-3.89.95-1.15,1.42-1.56,1.64-1.7.31-.2.43-.19.43-.2l.16.02c.19,0,1.23.32,3.13,6.55,2.02,7.09,4.74,10.75,8.34,11.18,1.8.21,3.64-.39,5.48-1.8.72-.55,1.44-1.21,2.19-1.97.02,1.39.17,2.6.43,3.61.48,1.85,1.06,3.31,1.71,4.35.66,1.05,1.43,1.9,2.29,2.54,1.48,1.06,3.23,1.6,5.2,1.6,2.5,0,5.06-.91,7.61-2.7,6.23-4.42,13.22-12.01,20.77-22.58.33-.5.46-1.09.38-1.74-.09-.68-.41-1.22-.96-1.6Zm-26.09-6.19c1.23-2.2,2.47-3.9,3.71-5.09-.77,1.48-2.01,3.18-3.71,5.09Zm-90.31,0c1.23-2.2,2.47-3.9,3.71-5.09-.77,1.48-2.01,3.18-3.71,5.09Z"/>
  <path class="cls-1" d="m193.69,100.22c.19-.9.01-1.71-.49-2.27l-.02-.02c-.24-.24-.54-.43-.89-.54l-.2-.07-1.61.81c-1.05.53-2.1,1.06-3.16,1.57-7.54,3.67-15.07,6.75-22.4,9.16-5.35,1.75-11.19,3.52-18.39,5.56-2.66.75-5.39,1.42-8.04,2.07-1.83.45-3.67.89-5.49,1.37-2.4.63-4.82,1.32-7.16,1.98-1.06.3-2.12.6-3.17.9l-5.01,1.32c-.83.08-1.59.36-2.33.63-.56.21-1.09.4-1.65.51-4.46.91-8.96,2-13.31,3.05-1.81.44-3.61.87-5.42,1.3-.73.17-1.46.35-2.19.53-2.2.53-4.47,1.09-6.72,1.47-1.26.22-2.51.52-3.72.81-1.02.25-2.08.5-3.12.7-2.19.42-4.46.71-6.65.99-1.78.23-3.63.47-5.43.77-9.89,1.66-19.85,2.09-29.61,1.29-4.9-.41-9.74-1.59-14.37-3.52-3.14-1.31-6.04-3.17-8.85-4.98-.56-.36-1.11-.72-1.67-1.07-.64-.51-1.27-1.03-1.9-1.55-1.47-1.2-3-2.45-4.53-3.63-2.3-1.78-3.95-1.28-4.93-.55-1.46,1.09-1.67,2.87-.55,4.75,2.69,4.53,7.25,6.58,11.65,8.57,5.51,2.49,11.71,4.09,19.53,5.05,2.48.34,5.25.55,8.47.63,1.44-.02,2.88-.01,4.33,0,3.24.01,6.6.01,9.89-.2,4.54-.3,9.37-.85,15.2-1.74.83-.13,1.67-.24,2.51-.35,2.79-.37,5.67-.75,8.44-1.71.58-.2,1.25-.23,1.95-.25.54-.02,1.1-.04,1.64-.15.76-.15,1.52-.35,2.25-.55,1.14-.31,2.21-.6,3.31-.69,1.76-.15,3.47-.57,5.12-.97.93-.23,1.9-.46,2.85-.65,3.95-.75,7.53-1.48,10.94-2.23,3.69-.82,7.38-1.68,11.06-2.54l5.15-1.2c1.92-.44,3.91-.9,5.86-1.4,2.71-.7,5.46-1.46,8.11-2.19l.63-.18c3.34-.93,6.68-1.87,10.02-2.82,1.15-.33,2.3-.66,3.44-.99.96-.28,1.93-.56,2.9-.84.82-.23,1.65-.46,2.47-.69,1.67-.46,3.39-.94,5.07-1.47,1.08-.34,2.14-.78,3.16-1.21.46-.19.91-.38,1.32-.55l3.15-.9,2.84-.98c5.52-1.89,11.22-3.85,16.64-6.36,1.49-.69,2.76-2.25,3.08-3.78Z"/>
  <path class="cls-1" d="m800.3,73.72c-2.69-4.53-7.25-6.59-11.65-8.57-5.51-2.49-11.71-4.09-19.53-5.05-2.47-.34-5.24-.55-8.47-.63-1.44.02-2.88.01-4.33,0-3.24,0-6.59-.01-9.89.2-4.53.3-9.36.85-15.2,1.74-.83.13-1.67.24-2.51.35-2.79.37-5.67.76-8.43,1.71-.58.2-1.25.23-1.95.25-.54.02-1.09.04-1.64.15-.76.15-1.52.35-2.25.55-1.14.31-2.21.6-3.32.69-1.76.15-3.46.57-5.11.97-.93.23-1.9.46-2.85.65-3.96.75-7.54,1.48-10.94,2.23-3.7.82-7.39,1.68-11.09,2.54l-5.16,1.2c-1.91.44-3.88.89-5.82,1.39-2.71.69-5.44,1.45-8.08,2.19l-.66.18c-3.34.93-6.68,1.87-10.02,2.82-1.13.32-2.27.65-3.4.98-.98.28-1.96.57-2.94.85-.82.24-1.65.46-2.48.69-1.67.46-3.39.94-5.07,1.47-1.08.34-2.13.78-3.15,1.21-.46.19-.92.38-1.33.55l-3.15.9-2.84.98c-5.52,1.9-11.23,3.85-16.64,6.36-1.5.69-2.76,2.25-3.08,3.78-.19.9-.01,1.71.51,2.29.24.24.54.43.89.54l.2.07,1.64-.82c1.04-.53,2.09-1.05,3.14-1.56,7.54-3.67,15.08-6.76,22.4-9.16,5.33-1.75,11.17-3.52,18.39-5.57,2.66-.75,5.4-1.42,8.04-2.07,1.83-.45,3.66-.89,5.48-1.37,2.4-.63,4.83-1.32,7.18-1.99,1.05-.3,2.1-.6,3.15-.89l5.01-1.32c.83-.08,1.59-.36,2.33-.63.56-.21,1.09-.4,1.65-.51,4.46-.91,8.96-2,13.31-3.05,1.81-.44,3.61-.87,5.42-1.3.73-.17,1.45-.35,2.18-.52,2.2-.54,4.48-1.09,6.74-1.48,1.26-.22,2.51-.52,3.72-.81,1.02-.25,2.08-.5,3.12-.7,2.19-.42,4.46-.71,6.65-.99,1.78-.23,3.63-.46,5.43-.77,9.88-1.66,19.85-2.1,29.61-1.29,4.9.41,9.74,1.59,14.37,3.52,3.14,1.31,6.04,3.17,8.85,4.98.56.36,1.12.72,1.68,1.07.62.5,1.24,1.01,1.86,1.52,1.49,1.21,3.02,2.47,4.57,3.66,2.3,1.77,3.95,1.28,4.93.55,1.46-1.09,1.67-2.87.55-4.75Z"/>
</svg>